<?xml version="1.0" ?><svg xmlns="http://www.w3.org/2000/svg" xmlns:xlink="http://www.w3.org/1999/xlink" version="1.1" viewBox="0 0 32 32" style="enable-background:new 0 0 32 32;" xml:space="preserve"><style type="text/css">
	.st0{fill:none;stroke:#263238;stroke-linecap:round;stroke-linejoin:round;stroke-miterlimit:10;}
</style><g id="calendar_x2C__date_x2C__day_x2C__ten_x2C__10"><g id="XMLID_1731_"><path id="XMLID_1741_" class="st0" d="M22,6.5L22,6.5c-0.829,0-1.5-0.671-1.5-1.5V3c0-0.829,0.671-1.5,1.5-1.5l0,0    c0.829,0,1.5,0.671,1.5,1.5v1.5"/><path id="XMLID_1740_" class="st0" d="M8,6.5L8,6.5C7.171,6.5,6.5,5.829,6.5,5V3c0-0.829,0.671-1.5,1.5-1.5l0,0    c0.829,0,1.5,0.671,1.5,1.5v1.5"/><g id="XMLID_1733_"><g id="XMLID_58_"><path id="XMLID_63_" class="st0" d="M29.5,28.5v-23c0-0.552-0.448-1-1-1H24"/><g id="XMLID_59_"><line id="XMLID_62_" class="st0" x1="8.5" y1="4.5" x2="20.5" y2="4.5"/><path id="XMLID_61_" class="st0" d="M2.5,9.525v19c0,0.552,0.448,1,1,1h23c0.552,0,1-0.448,1-1V5.5c0-0.553-0.447-1-1-1h-4"/><path id="XMLID_60_" class="st0" d="M6.5,4.5h-3c-0.553,0-1,0.447-1,1v4.025h23"/></g></g></g><path id="XMLID_1840_" class="st0" d="M17,24.5L17,24.5c1.381,0,2.5-1.119,2.5-2.5v-5c0-1.381-1.119-2.5-2.5-2.5l0,0    c-1.381,0-2.5,1.119-2.5,2.5v5C14.5,23.381,15.619,24.5,17,24.5z"/><polyline id="XMLID_1875_" class="st0" points="10.5,18.5 12.5,14.5 12.5,24.5   "/></g></g></svg>