<?xml version="1.0" ?><svg xmlns="http://www.w3.org/2000/svg" xmlns:xlink="http://www.w3.org/1999/xlink" version="1.1" viewBox="0 0 32 32" style="enable-background:new 0 0 32 32;" xml:space="preserve"><style type="text/css">
	.st0{fill:none;stroke:#263238;stroke-linecap:round;stroke-linejoin:round;stroke-miterlimit:10;}
</style><g id="calendar_x2C__date_x2C__three_x2C__day_x2C__3"><g id="XMLID_345_"><path id="XMLID_794_" class="st0" d="M22,6.5L22,6.5c-0.829,0-1.5-0.671-1.5-1.5V3c0-0.829,0.671-1.5,1.5-1.5l0,0    c0.829,0,1.5,0.671,1.5,1.5v1.5"/><path id="XMLID_721_" class="st0" d="M8,6.5L8,6.5C7.171,6.5,6.5,5.829,6.5,5V3c0-0.829,0.671-1.5,1.5-1.5l0,0    c0.829,0,1.5,0.671,1.5,1.5v1.5"/><g id="XMLID_1625_"><g id="XMLID_1632_"><path id="XMLID_1640_" class="st0" d="M29.5,28.5v-23c0-0.552-0.448-1-1-1H24"/><g id="XMLID_1636_"><line id="XMLID_1639_" class="st0" x1="8.5" y1="4.5" x2="20.5" y2="4.5"/><path id="XMLID_1638_" class="st0" d="M2.5,9v19.5c0,0.552,0.448,1,1,1h23c0.552,0,1-0.448,1-1v-23c0-0.552-0.448-1-1-1h-4"/><path id="XMLID_1637_" class="st0" d="M6.5,4.5h-3c-0.552,0-1,0.448-1,1v4h23"/></g></g></g><path id="XMLID_1574_" class="st0" d="M12.525,16.41c0.164-1.081,1.097-1.91,2.225-1.91h0.5c1.243,0,2.25,1.007,2.25,2.25l0,0    c0,1.243-1.007,2.25-2.25,2.25H15h0.25c1.243,0,2.25,1.007,2.25,2.25v1c0,1.243-1.007,2.25-2.25,2.25h-0.5    c-1.243,0-2.25-1.007-2.25-2.25"/></g></g></svg>