<?xml version="1.0" ?><svg xmlns="http://www.w3.org/2000/svg" xmlns:xlink="http://www.w3.org/1999/xlink" version="1.1" viewBox="0 0 32 32" style="enable-background:new 0 0 32 32;" xml:space="preserve"><style type="text/css">
	.st0{fill:none;stroke:#263238;stroke-linecap:round;stroke-linejoin:round;stroke-miterlimit:10;}
</style><g id="calendar_x2C__date_x2C__four_x2C__day_x2C__4"><g id="XMLID_1321_"><path id="XMLID_1588_" class="st0" d="M22,6.5L22,6.5c-0.829,0-1.5-0.671-1.5-1.5V3c0-0.829,0.671-1.5,1.5-1.5l0,0    c0.829,0,1.5,0.671,1.5,1.5v1.5"/><path id="XMLID_1587_" class="st0" d="M8,6.5L8,6.5C7.171,6.5,6.5,5.829,6.5,5V3c0-0.829,0.671-1.5,1.5-1.5l0,0    c0.829,0,1.5,0.671,1.5,1.5v1.5"/><g id="XMLID_26_"><g id="XMLID_27_"><path id="XMLID_1964_" class="st0" d="M29.5,28.5v-23c0-0.552-0.448-1-1-1H24"/><g id="XMLID_28_"><line id="XMLID_31_" class="st0" x1="8.5" y1="4.5" x2="20.5" y2="4.5"/><path id="XMLID_30_" class="st0" d="M2.5,9v19.5c0,0.552,0.448,1,1,1h23c0.552,0,1-0.448,1-1v-23c0-0.552-0.448-1-1-1h-4"/><path id="XMLID_29_" class="st0" d="M6.5,4.5h-3c-0.552,0-1,0.448-1,1v4h23"/></g></g></g><polyline id="XMLID_1622_" class="st0" points="16.5,24.5 16.5,14.5 15.5,14.5 12.5,21.5 17.5,21.5   "/></g></g></svg>