<?xml version="1.0" ?><svg xmlns="http://www.w3.org/2000/svg" id="Layer_4" data-name="Layer 4" viewBox="0 0 64 64"><defs><style>
      .cls-1 {
        fill: none;
        stroke: #000;
        stroke-linecap: round;
        stroke-linejoin: round;
        stroke-width: 3px;
      }
    </style></defs><path d="m44,15.39c5.21,0,9,4.01,9,9.53,0,4.75-3.19,7.75-8.82,12.65-3.89,3.38-8.26,7.18-12.18,12.7-3.92-5.53-8.29-9.33-12.18-12.7-5.63-4.9-8.82-7.9-8.82-12.65,0-5.52,3.79-9.53,9-9.53,6.37,0,9.09,6.65,9.2,6.92.45,1.15,1.55,1.9,2.79,1.91,0,0,.01,0,.02,0,1.23,0,2.33-.76,2.79-1.9.11-.28,2.84-6.93,9.21-6.93m0-3c-8.58,0-12,8.83-12,8.83,0,0-3.42-8.83-12-8.83-7.1,0-12,5.66-12,12.53,0,10.97,13.07,14.34,22.31,28.18.4.6,1.05.9,1.69.9s1.29-.3,1.69-.9c9.24-13.85,22.31-17.22,22.31-28.18,0-6.87-4.9-12.53-12-12.53h0Z"/><g><path class="cls-1" d="m43.37,24.66c-4.26,1.76-9.13,3.94-13.07,5.94-.74.37-1.46.74-2.15,1.11h0c-2.94,1.54-5.52,3.02-7.65,4.35-5.13,3.21-7.64,5.6-6,6.04.98.26,3.29-.21,6.42-1.22"/><path d="m41.5,20.85l7.24,1.08c.56.08.82.74.47,1.19l-4.55,5.73c-.35.44-1.05.34-1.26-.19l-2.69-6.81c-.21-.53.23-1.08.79-1Z"/></g></svg>