<?xml version="1.0" ?><svg xmlns="http://www.w3.org/2000/svg" id="Layer_4" data-name="Layer 4" viewBox="0 0 64 64"><defs><style>
      .cls-1 {
        fill: none;
        stroke: #000;
        stroke-linecap: round;
        stroke-linejoin: round;
        stroke-width: 3px;
      }
    </style></defs><path d="m44,10.57c-8.58,0-12,9.6-12,9.6,0,0-3.42-9.6-12-9.6-7.1,0-12,6.15-12,13.62,0,6.76,8.55,15.53,13.15,19.74,1.09,1,2.85.22,2.85-1.26h0c0-.45-.18-.89-.5-1.21-1.26-1.25-2.49-2.42-3.68-3.54-5.63-5.31-8.82-8.58-8.82-13.73,0-6,3.79-10.36,9-10.36,6.37,0,9.09,7.23,9.2,7.52.45,1.25,1.55,2.06,2.79,2.08h.01c1.23,0,2.34-.83,2.79-2.07.12-.3,2.84-7.53,9.21-7.53,5.21,0,9,4.36,9,10.36,0,5.15-3.19,8.42-8.82,13.73-1.38,1.31-2.73,2.36-4.18,3.74-.06,1.39-3.72,4.52-4,6.52,7-4.35,20-14.42,20-23.99,0-7.47-4.9-13.62-12-13.62Z"/><g><path class="cls-1" d="m31.58,34.76c-.06,2.03-.72,10.15-.58,11.25.34,2.65,3,3.26,10-3.26"/><path d="m27.35,33.37l4.12-6.58c.32-.51,1.03-.45,1.27.1l3.18,7.16c.25.56-.15,1.19-.72,1.15l-7.3-.58c-.57-.05-.87-.74-.56-1.25Z"/></g></svg>