<?xml version="1.0" ?><svg xmlns="http://www.w3.org/2000/svg" id="Layer_4" data-name="Layer 4" viewBox="0 0 64 64"><defs><style>
      .cls-1 {
        fill: none;
        stroke: #000;
        stroke-linecap: round;
        stroke-linejoin: round;
        stroke-width: 3px;
      }
    </style></defs><path d="m32,9.98s.77-1.98,2.69-1.98c1.59,0,2.69,1.27,2.69,2.8,0,2.33-2.63,3.13-4.67,5.85-.36.48-1.06.48-1.42,0-2.04-2.72-4.67-3.52-4.67-5.85,0-1.54,1.1-2.8,2.69-2.8,1.92,0,2.69,1.98,2.69,1.98Z"/><path d="m45.42,27v26h-27.07v-26h27.07m3-3H15.35v32h33.07V24h0Z"/><path d="m34.22,27v26h-4.67v-26h4.67m3-3h-10.67v32h10.67V24h0Z"/><path class="cls-1" d="m45.36,19.1h0c-.99-1.8-3.44-2.53-5.47-1.63l-15.09,6.7c-2.58,1.15-5.62-.44-5.71-2.99h0c-.09-2.47,2.65-4.27,5.28-3.47l5.34,2.19c7.13,2.93,14.71,6.92,22.39,5.26"/></svg>