<?xml version="1.0" ?><svg xmlns="http://www.w3.org/2000/svg" id="Layer_4" data-name="Layer 4" viewBox="0 0 64 64"><path d="m25.3,11c1.9,0,2.77,1.57,2.77,3.02,0,1.54-1.02,2.57-3.7,4.9-1.46,1.27-3.18,2.77-4.83,4.74-1.65-1.97-3.37-3.47-4.83-4.74-2.69-2.34-3.7-3.36-3.7-4.9,0-1.46.87-3.02,2.77-3.02s2.94,2.26,2.97,2.33c.45,1.16,1.55,1.93,2.79,1.93s2.34-.75,2.79-1.9c.04-.1,1-2.36,2.98-2.36m0-3c-4.13,0-5.77,4.25-5.77,4.25,0,0-1.64-4.25-5.77-4.25-3.41,0-5.77,2.72-5.77,6.02,0,5.27,6.28,6.89,10.72,13.55.19.29.5.43.81.43s.62-.14.81-.43c4.44-6.65,10.72-8.28,10.72-13.55,0-3.3-2.35-6.02-5.77-6.02h0Z"/><path d="m50.32,39c1.9,0,2.77,1.57,2.77,3.02,0,1.54-1.02,2.57-3.7,4.9-1.46,1.27-3.18,2.77-4.83,4.74-1.65-1.97-3.37-3.47-4.83-4.74-2.69-2.34-3.7-3.36-3.7-4.9,0-1.46.87-3.02,2.77-3.02s2.94,2.26,2.97,2.33c.45,1.16,1.55,1.93,2.79,1.93s2.34-.75,2.79-1.9c.04-.1,1-2.36,2.98-2.36m0-3c-4.13,0-5.77,4.25-5.77,4.25,0,0-1.64-4.25-5.77-4.25-3.41,0-5.77,2.72-5.77,6.02,0,5.27,6.28,6.89,10.72,13.55.19.29.5.43.81.43s.62-.14.81-.43c4.44-6.65,10.72-8.28,10.72-13.55,0-3.3-2.35-6.02-5.77-6.02h0Z"/><path d="m49.96,11.21l1.79,1.79L13.02,51.73l-1.79-1.79L49.96,11.21m0-4.24L6.99,49.94l6.04,6.04L56,13l-6.04-6.04h0Z"/></svg>