<?xml version="1.0" ?><svg xmlns="http://www.w3.org/2000/svg" id="Layer_4" data-name="Layer 4" viewBox="0 0 64 64"><defs><style>
      .cls-1 {
        fill: none;
        stroke: #000;
        stroke-linecap: round;
        stroke-linejoin: round;
        stroke-width: 3px;
      }
    </style></defs><g><path class="cls-1" d="m31.58,49.97c-.06-2.03-.72-13.23-.58-14.33.21-1.66,1.5-3.04,3.85-1.67,5.15,3-2.95,13.6-12.95,6.25"/><path d="m27.35,49.04l4.12,6.58c.32.51,1.03.45,1.27-.1l3.18-7.16c.25-.56-.15-1.19-.72-1.15l-7.3.58c-.57.05-.87.74-.56,1.25Z"/></g><path d="m44,11.16c-8.58,0-12,8.84-12,8.84,0,0-3.42-8.84-12-8.84-7.1,0-12,5.66-12,12.53,0,7.35,6.62,12.74,13.13,17.86.68.54,1.72,1.15,2.28,1.33l.15-3.24c-1.28-1.17-2.53-2.26-3.74-3.31-5.63-4.9-8.82-7.9-8.82-12.65,0-5.52,3.79-9.53,9-9.53,6.37,0,9.09,6.65,9.2,6.92.45,1.15,1.55,1.91,2.79,1.91h.01c1.23,0,2.34-.75,2.79-1.9.12-.28,2.84-6.93,9.21-6.93,5.21,0,9,4.01,9,9.53,0,4.75-3.19,7.75-8.82,12.65-2.23,1.94-4.61,4.01-6.98,6.47-.48.5-.55,1.29-.16,1.87h0c.53.79,1.66.9,2.32.21,8.13-8.44,16.64-12.35,16.64-21.2,0-6.87-4.9-12.53-12-12.53Z"/></svg>